<?xml version="1.0" encoding="UTF-8"?>
<!DOCTYPE svg PUBLIC "-//W3C//DTD SVG 1.1//EN" "http://www.w3.org/Graphics/SVG/1.1/DTD/svg11.dtd">
<!-- Creator: CorelDRAW -->
<svg xmlns="http://www.w3.org/2000/svg" xml:space="preserve" width="2048px" height="2048px" style="shape-rendering:geometricPrecision; text-rendering:geometricPrecision; image-rendering:optimizeQuality; fill-rule:evenodd; clip-rule:evenodd"
viewBox="0 0 2048 2048"
 xmlns:xlink="http://www.w3.org/1999/xlink">
 <defs>
  <style type="text/css">
   <![CDATA[
    .fil1 {fill:none}
    .fil0 {fill:#212121;fill-rule:nonzero}
   ]]>
  </style>
 </defs>
 <g id="Layer_x0020_1">
  <metadata id="CorelCorpID_0Corel-Layer"/>
  <path class="fil0" d="M1299.31 1653.12c17.6728,0 32.0008,-14.328 32.0008,-32.0008 0,-17.6728 -14.328,-32.0008 -32.0008,-32.0008l-304.244 0 0 -184.677 421.729 0 224.512 40.8201c24.4252,4.44095 46.604,9.82796 61.0855,19.2744 9.91654,6.4689 16.1563,16.3536 16.1563,32.2441l0 32.1697c0,11.2937 5.85237,21.2209 14.6882,26.9162l26.7591 19.3689 0 13.8839 -224.36 0c-17.6728,0 -32.0008,14.328 -32.0008,32.0008 0,17.6728 14.328,32.0008 32.0008,32.0008l256.361 0c17.6728,0 32.0008,-14.328 32.0008,-32.0008l0 -61.8189 0 -0.311811 0 -0.0389764c-0.00826772,-9.90591 -4.59922,-19.6713 -13.2378,-25.9229l-0.0271654 0.0366142 -28.1823 -20.3988 0 -15.8847c0,-41.0929 -17.5358,-67.5615 -45.4075,-85.7434 -23.3067,-15.2032 -52.9418,-22.7717 -84.5847,-28.5248l-225.026 -40.9134c-2.72362,-0.753544 -5.59134,-1.15866 -8.55473,-1.15866l-455.913 0c-17.6728,0 -32.0008,14.328 -32.0008,32.0008l0 248.679c0,17.6728 14.328,32.0008 32.0008,32.0008l336.245 0z"/>
  <path class="fil0" d="M626.783 1589.12c-17.6728,0 -32.0008,14.328 -32.0008,32.0008 0,17.6728 14.328,32.0008 32.0008,32.0008l336.245 0c17.6728,0 32.0008,-14.328 32.0008,-32.0008l0 -248.679c0,-17.6728 -14.328,-32.0008 -32.0008,-32.0008l-455.507 0c-3.77717,-0.287008 -10.3028,-0.837402 -17.198,-1.41732 -82.3241,-6.92008 -214.258,-18.0095 -224.753,106.371l-5.94095 70.4044 -23.1307 17.902 19.5 25.2496 -19.5862 -25.3063c-8.14134,6.3 -12.4063,15.7512 -12.4134,25.3063l-0.0011811 0 0 62.1697c0,17.6728 14.328,32.0008 32.0008,32.0008l134.459 0c17.6728,0 32.0008,-14.328 32.0008,-32.0008 0,-17.6728 -14.328,-32.0008 -32.0008,-32.0008l-102.458 0 0 -14.5949 19.8685 -15.3768c7.93701,-5.20867 13.487,-13.8815 14.3469,-24.0756l-31.8874 -2.69055 31.8756 2.62559 7.11851 -84.3615c5.10827,-60.5339 97.8698,-52.7374 155.751,-47.8713 5.30552,0.446457 10.3512,0.870473 17.9138,1.40315 1.35236,0.174803 2.73071,0.264567 4.13032,0.264567l423.911 0 0 184.677 -304.244 0z"/>
  <path class="fil0" d="M966.97 1112.72c24.4347,1.77402 50.5536,1.60748 76.9713,1.43976 77.569,-0.493701 157.443,-1.00158 202.885,40.9973l-21.6248 23.5004 21.7193 -23.5004c0.422835,0.390945 0.831497,0.791339 1.22835,1.19764l193.458 193.458 0.00236221 -0.00236221c12.4961,12.4961 12.4961,32.7591 0,45.2552 -6.24804,6.24804 -14.4378,9.37205 -22.6276,9.37205l0 0.0011811 -455.933 0c-17.6728,0 -32.0008,-14.328 -32.0008,-32.0008l0 -227.956c0,-17.6728 14.328,-32.0008 32.0008,-32.0008 1.32756,0 2.63622,0.0826772 3.92126,0.239764zm77.2217 65.191c-16.6973,0.106299 -33.2859,0.210236 -49.1422,-0.0744095l0 162.6 346.681 0 -139.154 -139.154 0.00708662 -0.00708662c-27.7571,-24.1914 -94.0158,-23.7744 -158.392,-23.3646z"/>
  <path class="fil0" d="M931.048 1177.84c-15.8563,0.284646 -32.4449,0.180709 -49.1433,0.0744095 -64.376,-0.409843 -130.634,-0.826772 -158.391,23.3646l0.00708662 0.00708662 -139.154 139.154 346.681 0 0 -162.6zm-48.893 -63.6768c26.4189,0.167717 52.5378,0.334252 76.9725,-1.43976 1.28504,-0.157087 2.5937,-0.239764 3.92126,-0.239764 17.6728,0 32.0008,14.328 32.0008,32.0008l0 227.956c0,17.6728 -14.328,32.0008 -32.0008,32.0008l-455.933 0 0 -0.0011811c-8.18977,0 -16.3795,-3.12402 -22.6276,-9.37205 -12.4961,-12.4961 -12.4961,-32.7591 0,-45.2552l0.00236221 0.00236221 193.458 -193.458c0.396851,-0.4063 0.805512,-0.806694 1.22835,-1.19764l21.7193 23.5004 -21.6248 -23.5004c45.4418,-41.9989 125.315,-41.491 202.884,-40.9973z"/>
  <path class="fil0" d="M1417.48 1483.66c41.6729,0 79.4068,16.8957 106.72,44.2087 27.313,27.3118 44.2087,65.0445 44.2087,106.719 0,41.6752 -16.8957,79.4079 -44.2087,106.72 -27.3118,27.313 -65.0445,44.2087 -106.72,44.2087 -41.674,0 -79.4068,-16.8957 -106.719,-44.2087 -27.313,-27.313 -44.2087,-65.0469 -44.2087,-106.72 0,-41.674 16.8957,-79.4068 44.2087,-106.719 27.3118,-27.313 65.0445,-44.2087 106.719,-44.2087zm61.4693 89.4591c-15.7276,-15.7276 -37.4622,-25.4575 -61.4693,-25.4575 -24.0071,0 -45.7418,9.72993 -61.4682,25.4575 -15.7276,15.7264 -25.4575,37.4611 -25.4575,61.4682 0,24.0071 9.72993,45.7418 25.4575,61.4693 15.7264,15.7276 37.4611,25.4575 61.4682,25.4575 24.0083,0 45.7418,-9.72875 61.4693,-25.4575 15.7288,-15.7276 25.4575,-37.4611 25.4575,-61.4693 0,-24.0071 -9.72993,-45.7418 -25.4575,-61.4682z"/>
  <path class="fil0" d="M508.62 1547.66c-24.0071,0 -45.7406,9.72875 -61.4682,25.4575 -15.7276,15.7264 -25.4575,37.4611 -25.4575,61.4682 0,24.0071 9.72993,45.7418 25.4575,61.4693 15.7276,15.7288 37.4611,25.4575 61.4682,25.4575 24.0071,0 45.7418,-9.72993 61.4693,-25.4575 15.7288,-15.7276 25.4575,-37.4611 25.4575,-61.4693 0,-24.0071 -9.72993,-45.7418 -25.4575,-61.4682 -15.7276,-15.7276 -37.4622,-25.4575 -61.4693,-25.4575zm-106.719 -19.7929c27.3118,-27.313 65.0445,-44.2087 106.719,-44.2087 41.6729,0 79.4068,16.8957 106.72,44.2087 27.313,27.3118 44.2087,65.0445 44.2087,106.719 0,41.6752 -16.8957,79.4079 -44.2087,106.72 -27.313,27.313 -65.0469,44.2087 -106.72,44.2087 -41.674,0 -79.4068,-16.8957 -106.719,-44.2087 -27.313,-27.313 -44.2087,-65.0469 -44.2087,-106.72 0,-41.674 16.8957,-79.4068 44.2087,-106.719z"/>
  <path class="fil0" d="M1417.48 1583.28c14.1662,0 26.9929,5.74489 36.2788,15.0284 9.28347,9.28583 15.0284,22.1138 15.0284,36.2788 0,14.1662 -5.74489,26.9929 -15.0284,36.2788 -9.28583,9.28347 -22.1126,15.0284 -36.2788,15.0284 -14.165,0 -26.9929,-5.74489 -36.2788,-15.0284 -9.28347,-9.28583 -15.0284,-22.1126 -15.0284,-36.2788 0,-14.165 5.74489,-26.9941 15.0295,-36.2776 9.28347,-9.28465 22.1126,-15.0295 36.2776,-15.0295zm13.6536 37.6536c-3.49252,-3.49134 -8.32087,-5.65276 -13.6536,-5.65276 -5.3315,0 -10.161,2.16142 -13.6524,5.65394 -3.49252,3.49134 -5.65394,8.32087 -5.65394,13.6524 0,5.33268 2.16142,10.161 5.65276,13.6536 3.49134,3.49134 8.31969,5.65276 13.6536,5.65276 5.33268,0 10.161,-2.16142 13.6536,-5.65276 3.49134,-3.49252 5.65276,-8.32087 5.65276,-13.6536 0,-5.33386 -2.16142,-10.1622 -5.65276,-13.6536z"/>
  <path class="fil0" d="M508.62 1615.28c-5.33268,0 -10.1599,2.16142 -13.6524,5.65276 -3.49134,3.49134 -5.65276,8.31969 -5.65276,13.6536 0,5.33268 2.16142,10.161 5.65276,13.6536 3.49134,3.49134 8.31969,5.65276 13.6524,5.65276 5.33386,0 10.1622,-2.16142 13.6536,-5.65276 3.49134,-3.49252 5.65276,-8.32087 5.65276,-13.6536 0,-5.33386 -2.16142,-10.1622 -5.65276,-13.6536 -3.49134,-3.49134 -8.31969,-5.65276 -13.6536,-5.65276zm-36.2776 -16.9725c9.28583,-9.28347 22.1138,-15.0284 36.2776,-15.0284 14.165,0 26.9929,5.74489 36.2788,15.0284 9.28347,9.28583 15.0284,22.1138 15.0284,36.2788 0,14.1662 -5.74489,26.9929 -15.0284,36.2788 -9.28583,9.28347 -22.1138,15.0284 -36.2788,15.0284 -14.1662,0 -26.9941,-5.74489 -36.2776,-15.0284 -9.28347,-9.28583 -15.0284,-22.1126 -15.0284,-36.2788 0,-14.165 5.74489,-26.9929 15.0284,-36.2788z"/>
  <path class="fil0" d="M464 306.998l1120 0c17.6728,0 32.0008,14.328 32.0008,32.0008 0,52.8319 -21.5917,100.841 -56.3752,135.625 -34.7835,34.7835 -82.7918,56.3752 -135.625,56.3752l-800.001 0c-52.8331,0 -100.841,-21.5917 -135.625,-56.3752 -34.7835,-34.7835 -56.3752,-82.793 -56.3752,-135.625 0,-17.6728 14.328,-32.0008 32.0008,-32.0008zm1083.91 64.0016l-1047.83 0c5.82756,22.3843 17.6091,42.4453 33.5374,58.3737 23.2134,23.2134 55.2071,37.624 90.3745,37.624l800.001 0c35.1673,0 67.1611,-14.4106 90.3745,-37.624 15.9284,-15.9284 27.7099,-35.9894 33.5374,-58.3737z"/>
  <path class="fil0" d="M255.998 307.001c-17.6728,0 -32.0008,14.328 -32.0008,32.0008 0,17.6728 14.328,32.0008 32.0008,32.0008l1536 0c17.6728,0 32.0008,-14.328 32.0008,-32.0008 0,-17.6728 -14.328,-32.0008 -32.0008,-32.0008l-1536 0z"/>
  <path class="fil0" d="M892.59 659.548c-7.52363,13.611 -15.5587,25.5567 -22.9193,36.4996 -11.2583,16.7374 -20.491,30.4642 -20.491,39.7725 0,13.7835 3.17008,27.0981 11.2465,35.5347 6.32717,6.60827 16.6087,10.8768 32.1638,10.8768 15.5551,0 25.8378,-4.26969 32.1638,-10.8768 8.07638,-8.43662 11.2465,-21.7512 11.2465,-35.5347 0,-9.30827 -9.23268,-23.0351 -20.491,-39.7725 -7.36064,-10.9429 -15.3957,-22.8886 -22.9193,-36.4996zm-62.6705 9.8752c13.9961,-20.8075 30.7937,-45.7831 38.9268,-77.954 1.40079,-9.4004 8.34686,-17.4638 18.1571,-19.8118 12.8906,-3.08504 25.8425,4.86378 28.9276,17.7543l-23.341 5.58662 23.25 -5.53111c7.93111,33.1394 25.1351,58.7185 39.4205,79.956 15.7902,23.4744 28.7398,42.7276 28.7398,66.3969 0,24.8421 -6.97441,50.1567 -24.7465,68.7213 -14.9457,15.6095 -36.5764,25.6902 -66.6638,25.6902 -30.0874,0 -51.7193,-10.0819 -66.6638,-25.6902 -17.7721,-18.5646 -24.7465,-43.8792 -24.7465,-68.7213 0,-23.6693 12.9496,-42.9225 28.7398,-66.3969z"/>
  <path class="fil0" d="M1148.59 755.548c-7.52363,13.611 -15.5587,25.5567 -22.9193,36.4996 -11.2583,16.7374 -20.491,30.4642 -20.491,39.7725 0,13.7835 3.17008,27.0981 11.2465,35.5347 6.32599,6.60709 16.6087,10.8768 32.1638,10.8768 15.5551,0 25.8366,-4.26851 32.1638,-10.8768 8.07638,-8.43662 11.2465,-21.7512 11.2465,-35.5347 0,-9.30827 -9.23268,-23.0351 -20.491,-39.7725 -7.36064,-10.9429 -15.3957,-22.8886 -22.9193,-36.4996zm-62.6705 9.8752c13.9961,-20.8075 30.7937,-45.7831 38.9268,-77.954 1.40079,-9.4004 8.34686,-17.4638 18.1571,-19.8118 12.8906,-3.08504 25.8425,4.86378 28.9276,17.7543l-23.341 5.58662 23.25 -5.53111c7.93111,33.1394 25.1351,58.7185 39.4205,79.956 15.7902,23.4744 28.7398,42.7276 28.7398,66.3969 0,24.8421 -6.97441,50.1567 -24.7465,68.7213 -14.9445,15.6083 -36.5764,25.6902 -66.6638,25.6902 -30.0874,0 -51.7182,-10.0807 -66.6638,-25.6902 -17.7721,-18.5646 -24.7465,-43.8792 -24.7465,-68.7213 0,-23.6693 12.9496,-42.9225 28.7398,-66.3969z"/>
  <path class="fil0" d="M668.591 864.316c-7.52363,13.611 -15.5587,25.5567 -22.9193,36.4996 -11.2583,16.7374 -20.491,30.4642 -20.491,39.7725 0,13.7835 3.17008,27.0981 11.2465,35.5347 6.32717,6.60827 16.6087,10.8768 32.1638,10.8768 15.5551,0 25.8378,-4.26969 32.1638,-10.8768 8.07638,-8.43662 11.2465,-21.7512 11.2465,-35.5347 0,-9.30827 -9.23268,-23.0351 -20.491,-39.7725 -7.36064,-10.9429 -15.3957,-22.8886 -22.9193,-36.4996zm-62.6705 9.8752c13.9961,-20.8075 30.7937,-45.7831 38.9268,-77.954 1.40079,-9.4004 8.34686,-17.4638 18.1571,-19.8118 12.8906,-3.08504 25.8425,4.86378 28.9276,17.7543l-23.341 5.58662 23.25 -5.53111c7.93111,33.1394 25.1351,58.7185 39.4205,79.956 15.7902,23.4744 28.7398,42.7276 28.7398,66.3969 0,24.8421 -6.97441,50.1567 -24.7465,68.7213 -14.9457,15.6095 -36.5764,25.6902 -66.6638,25.6902 -30.0874,0 -51.7193,-10.0819 -66.6638,-25.6902 -17.7721,-18.5646 -24.7465,-43.8792 -24.7465,-68.7213 0,-23.6693 12.9496,-42.9225 28.7398,-66.3969z"/>
  <path class="fil0" d="M1436.59 896.316c-7.52363,13.611 -15.5587,25.5567 -22.9193,36.4996 -11.2583,16.7374 -20.491,30.4642 -20.491,39.7725 0,13.7835 3.17008,27.0981 11.2465,35.5347 6.32599,6.60709 16.6087,10.8768 32.1638,10.8768 15.5551,0 25.8366,-4.26851 32.1638,-10.8768 8.07638,-8.43662 11.2465,-21.7512 11.2465,-35.5347 0,-9.30827 -9.23268,-23.0351 -20.491,-39.7725 -7.36064,-10.9429 -15.3957,-22.8886 -22.9193,-36.4996zm-62.6705 9.8752c13.9961,-20.8075 30.7937,-45.7831 38.9268,-77.954 1.40079,-9.4004 8.34686,-17.4638 18.1571,-19.8118 12.8906,-3.08504 25.8425,4.86378 28.9276,17.7543l-23.341 5.58662 23.25 -5.53111c7.93111,33.1394 25.1351,58.7185 39.4205,79.956 15.7902,23.4744 28.7398,42.7276 28.7398,66.3969 0,24.8421 -6.97441,50.1567 -24.7465,68.7213 -14.9445,15.6083 -36.5764,25.6902 -66.6638,25.6902 -30.0874,0 -51.7182,-10.0807 -66.6638,-25.6902 -17.7721,-18.5646 -24.7465,-43.8792 -24.7465,-68.7213 0,-23.6693 12.9496,-42.9225 28.7398,-66.3969z"/>
  <path class="fil0" d="M1358.82 654.486c-3.33544,5.34331 -6.67914,10.3146 -9.84686,15.0248 -7.1256,10.5933 -12.9709,19.2851 -12.9709,23.5547 0,7.88386 1.62165,15.2988 5.74961,19.611 3.07796,3.21496 8.48386,5.29252 17.0681,5.29252 17.113,0 22.8177,-12.4524 22.8177,-24.9036 0,-4.26969 -5.84528,-12.9614 -12.9709,-23.5547 -3.16772,-4.71024 -6.51142,-9.6815 -9.84686,-15.0248zm-49.5981 -11.5996c9.30827,-13.839 20.4638,-30.424 25.865,-51.2197 1.42323,-9.37324 8.35867,-17.4036 18.1465,-19.7457 12.8906,-3.08504 25.8425,4.86378 28.9276,17.7543l-23.341 5.58662 23.25 -5.53111c5.19449,21.7063 16.7528,38.8902 26.3481,53.1556 11.6575,17.3327 21.2197,31.5461 21.2197,50.1792 0,36.4524 -17.7036,72.9036 -70.8178,72.9036 -23.1166,0 -39.874,-7.88977 -51.5681,-20.1059 -13.8248,-14.439 -19.2496,-33.8551 -19.2496,-52.7977 0,-18.6331 9.56221,-32.8465 21.2197,-50.1792z"/>
  <path class="fil0" d="M529.183 654.486c-3.33544,5.34331 -6.67914,10.3146 -9.84686,15.0248 -7.1256,10.5933 -12.9709,19.2851 -12.9709,23.5547 0,7.88386 1.62165,15.2988 5.74961,19.611 3.07796,3.21496 8.48386,5.29252 17.0681,5.29252 17.113,0 22.8177,-12.4524 22.8177,-24.9036 0,-4.26969 -5.84528,-12.9614 -12.9709,-23.5547 -3.16772,-4.71024 -6.51142,-9.6815 -9.84686,-15.0248zm-49.5981 -11.5996c9.30827,-13.839 20.4638,-30.424 25.865,-51.2197 1.42323,-9.37324 8.35867,-17.4036 18.1465,-19.7457 12.8906,-3.08504 25.8425,4.86378 28.9276,17.7543l-23.341 5.58662 23.25 -5.53111c5.19449,21.7063 16.7528,38.8902 26.3481,53.1556 11.6575,17.3327 21.2197,31.5461 21.2197,50.1792 0,36.4524 -17.7036,72.9036 -70.8178,72.9036 -23.1177,0 -39.874,-7.88977 -51.5681,-20.1059 -13.8248,-14.439 -19.2496,-33.8551 -19.2496,-52.7977 0,-18.6331 9.56221,-32.8465 21.2197,-50.1792z"/>
  <path class="fil0" d="M966.798 946.103c-1.61457,2.46378 -3.20906,4.83544 -4.75512,7.13268 -5.51693,8.20158 -10.0417,14.9303 -10.0417,17.2394 0,5.58662 1.01811,10.7043 3.60709,13.4091 1.81181,1.89213 5.31969,3.11575 11.1898,3.11575 5.86772,0 9.37678,-1.2248 11.1886,-3.11693 2.59016,-2.70591 3.60827,-7.82363 3.60827,-13.4079 0,-2.30906 -4.52481,-9.03662 -10.0417,-17.2394 -1.54606,-2.29725 -3.14055,-4.6689 -4.75512,-7.13268zm-44.5063 -19.4917c7.48583,-11.1295 16.4445,-24.4512 20.7827,-40.8402 1.44449,-9.34725 8.37166,-17.3492 18.1382,-19.6854 12.8906,-3.08386 25.8425,4.86496 28.9264,17.7555l-23.341 5.58544 23.25 -5.53111c4.12796,17.2524 13.487,31.1646 21.2563,42.7158 10.0488,14.9398 18.2906,27.1937 18.2906,43.8638 0,16.6453 -4.82126,33.763 -17.1083,46.5945 -10.4291,10.8945 -25.2886,17.9303 -45.6886,17.9303 -20.4024,0 -35.2607,-7.03701 -45.6898,-17.9291 -12.2858,-12.8339 -17.1071,-29.9504 -17.1071,-46.5957 0,-16.6689 8.24174,-28.924 18.2906,-43.8638z"/>
  <path class="fil0" d="M473.203 1010.1c-1.61457,2.46378 -3.20906,4.83544 -4.75512,7.13268 -5.51693,8.20158 -10.0417,14.9291 -10.0417,17.2394 0,5.58662 1.01693,10.7032 3.60709,13.4091 1.81181,1.89213 5.31969,3.11575 11.1898,3.11575 5.86772,0 9.37678,-1.2248 11.1886,-3.11693 2.59016,-2.70591 3.60827,-7.82363 3.60827,-13.4079 0,-2.31024 -4.52481,-9.03662 -10.0417,-17.2394 -1.54606,-2.29725 -3.14055,-4.6689 -4.75512,-7.13268zm-44.5063 -19.4917c7.48583,-11.1295 16.4445,-24.4512 20.7827,-40.8402 1.44449,-9.34725 8.37166,-17.3492 18.1382,-19.6854 12.8906,-3.08386 25.8425,4.86496 28.9264,17.7555l-23.341 5.58544 23.25 -5.53111c4.12796,17.2524 13.487,31.1646 21.2563,42.7158 10.0488,14.941 18.2906,27.1949 18.2906,43.8638 0,16.6453 -4.82126,33.763 -17.1083,46.5945 -10.4291,10.8945 -25.2886,17.9303 -45.6886,17.9303 -20.4024,0 -35.2607,-7.03701 -45.6898,-17.9291 -12.2847,-12.8327 -17.1071,-29.9504 -17.1071,-46.5957 0,-16.6665 8.24174,-28.924 18.2906,-43.8638z"/>
 </g>
 <rect class="fil1" width="2048" height="2048"/>
</svg>
