<?xml version="1.0" encoding="UTF-8"?>
<!DOCTYPE svg PUBLIC "-//W3C//DTD SVG 1.1//EN" "http://www.w3.org/Graphics/SVG/1.1/DTD/svg11.dtd">
<!-- Creator: CorelDRAW -->
<svg xmlns="http://www.w3.org/2000/svg" xml:space="preserve" width="2048px" height="2048px" style="shape-rendering:geometricPrecision; text-rendering:geometricPrecision; image-rendering:optimizeQuality; fill-rule:evenodd; clip-rule:evenodd"
viewBox="0 0 2048 2048"
 xmlns:xlink="http://www.w3.org/1999/xlink">
 <defs>
  <style type="text/css">
   <![CDATA[
    .fil1 {fill:none}
    .fil0 {fill:#212121;fill-rule:nonzero}
   ]]>
  </style>
 </defs>
 <g id="Layer_x0020_1">
  <metadata id="CorelCorpID_0Corel-Layer"/>
  <path class="fil0" d="M899.85 530.341c-17.6728,0 -32.0008,14.328 -32.0008,32.0008 0,17.6728 14.328,32.0008 32.0008,32.0008l80.165 0 0 926.876 -667.582 0 0 -926.876 78.3804 0c17.6728,0 32.0008,-14.328 32.0008,-32.0008 0,-17.6728 -14.328,-32.0008 -32.0008,-32.0008l-86.2394 0c-16.0784,0 -30.5079,7.08071 -40.8,18.4831 -9.46654,10.4917 -15.3425,24.7583 -15.3425,40.2697l0 937.373c0,15.5114 5.87599,29.778 15.3425,40.2697 10.2921,11.4024 24.7217,18.4831 40.8,18.4831l683.3 0c16.0772,0 30.5079,-7.07953 40.8,-18.4831 9.46654,-10.4882 15.3425,-24.7583 15.3425,-40.2697l0 -937.373c0,-15.5114 -5.87599,-29.7815 -15.3425,-40.2697 -10.2921,-11.4036 -24.7229,-18.4831 -40.8,-18.4831l-88.0241 0z"/>
  <path class="fil0" d="M456.59 462.781l379.266 0c26.5394,0 50.6457,10.8354 68.1001,28.2898 17.4543,17.4543 28.2898,41.5607 28.2898,68.1001l0 60.1418c0,9.99804 -4.07244,19.0748 -10.624,25.6264 -6.55158,6.55158 -15.6284,10.624 -25.6264,10.624l-499.545 0c-10.0075,0 -19.0748,-4.07244 -25.6264,-10.624 -6.55158,-6.55158 -10.624,-15.6284 -10.624,-25.6264l0 -60.1418c0,-26.5394 10.8354,-50.6457 28.2898,-68.1001 17.4543,-17.4543 41.5607,-28.2898 68.1001,-28.2898zm379.266 64.0016l-379.266 0c-8.87363,0 -16.9654,3.65433 -22.8496,9.53859 -5.88426,5.88426 -9.53859,13.976 -9.53859,22.8496l0 32.3906 444.043 0 0 -32.3906c0,-8.87363 -3.65433,-16.9654 -9.53859,-22.8496 -5.88426,-5.88426 -13.976,-9.53859 -22.8496,-9.53859z"/>
  <path class="fil0" d="M375.075 763.28l74.8973 0c8.83583,0 16.0004,7.16457 16.0004,16.0004l0 82.9985c0,8.83583 -7.16457,16.0004 -16.0004,16.0004l-74.8973 0c-8.83583,0 -16.0004,-7.16457 -16.0004,-16.0004l0 -82.9985c0,-8.83583 7.16457,-16.0004 16.0004,-16.0004zm58.8969 32.0008l-42.8965 0 0 50.9977 42.8965 0 0 -50.9977z"/>
  <path class="fil0" d="M375.075 922.085l74.8973 0c8.83583,0 16.0004,7.16457 16.0004,16.0004l0 82.9985c0,8.83583 -7.16457,16.0004 -16.0004,16.0004l-74.8973 0c-8.83583,0 -16.0004,-7.16457 -16.0004,-16.0004l0 -82.9985c0,-8.83583 7.16457,-16.0004 16.0004,-16.0004zm58.8969 32.0008l-42.8965 0 0 50.9977 42.8965 0 0 -50.9977z"/>
  <path class="fil0" d="M510.937 804.779c-8.83583,0 -16.0004,7.16457 -16.0004,16.0004 0,8.83583 7.16457,16.0004 16.0004,16.0004l406.434 0c8.83583,0 16.0004,-7.16457 16.0004,-16.0004 0,-8.83583 -7.16457,-16.0004 -16.0004,-16.0004l-406.434 0z"/>
  <path class="fil0" d="M510.937 963.584c-8.83583,0 -16.0004,7.16457 -16.0004,16.0004 0,8.83583 7.16457,16.0004 16.0004,16.0004l406.434 0c8.83583,0 16.0004,-7.16457 16.0004,-16.0004 0,-8.83583 -7.16457,-16.0004 -16.0004,-16.0004l-406.434 0z"/>
  <path class="fil0" d="M375.075 1078.48l74.8973 0c8.83583,0 16.0004,7.16457 16.0004,16.0004l0 82.9985c0,8.83583 -7.16457,16.0004 -16.0004,16.0004l-74.8973 0c-8.83583,0 -16.0004,-7.16457 -16.0004,-16.0004l0 -82.9985c0,-8.83583 7.16457,-16.0004 16.0004,-16.0004zm58.8969 32.0008l-42.8965 0 0 50.9977 42.8965 0 0 -50.9977z"/>
  <path class="fil0" d="M375.075 1237.28l74.8973 0c8.83583,0 16.0004,7.16457 16.0004,16.0004l0 82.9985c0,8.83583 -7.16457,16.0004 -16.0004,16.0004l-74.8973 0c-8.83583,0 -16.0004,-7.16457 -16.0004,-16.0004l0 -82.9985c0,-8.83583 7.16457,-16.0004 16.0004,-16.0004zm58.8969 32.0008l-42.8965 0 0 50.9977 42.8965 0 0 -50.9977z"/>
  <path class="fil0" d="M510.937 1119.98c-8.83583,0 -16.0004,7.16457 -16.0004,16.0004 0,8.83583 7.16457,16.0004 16.0004,16.0004l406.434 0c8.83583,0 16.0004,-7.16457 16.0004,-16.0004 0,-8.83583 -7.16457,-16.0004 -16.0004,-16.0004l-406.434 0z"/>
  <path class="fil0" d="M510.937 1278.78c-8.83583,0 -16.0004,7.16457 -16.0004,16.0004 0,8.83583 7.16457,16.0004 16.0004,16.0004l406.434 0c8.83583,0 16.0004,-7.16457 16.0004,-16.0004 0,-8.83583 -7.16457,-16.0004 -16.0004,-16.0004l-406.434 0z"/>
  <path class="fil0" d="M1318.51 1464.54c17.6728,0 32.0008,-14.328 32.0008,-32.0008 0,-17.6728 -14.328,-32.0008 -32.0008,-32.0008l-274.472 0 0 -162.659 381.362 0 204.329 37.1516c21.9437,3.98859 41.8276,8.80276 54.6355,17.1579 8.2441,5.37756 13.4315,13.6512 13.4315,27.0201l0 29.3209c0,11.2937 5.85237,21.2197 14.687,26.915l23.0894 16.7138 0 8.37993 -201.66 0c-17.6728,0 -32.0008,14.328 -32.0008,32.0008 0,17.6728 14.328,32.0008 32.0008,32.0008l233.661 0c17.6728,0 32.0008,-14.328 32.0008,-32.0008l0 -56.3682 0 -0.296457 -0.0011811 0c-0.00826772,-9.90473 -4.59804,-19.6689 -13.2354,-25.9217l-0.0271654 0.0366142 -24.5126 -17.7437 0 -13.037c0,-38.5701 -16.4835,-63.4288 -42.6827,-80.5194 -21.6343,-14.113 -48.9744,-21.1075 -78.1347,-26.4083l-204.841 -37.2449c-2.72362,-0.753544 -5.59252,-1.15866 -8.55591,-1.15866l-415.545 0c-17.6728,0 -32.0008,14.328 -32.0008,32.0008l0 226.661c0,17.6728 14.328,32.0008 32.0008,32.0008l306.473 0z"/>
  <path class="fil0" d="M1015.92 966.349c22.213,1.60512 45.8788,1.45512 69.8127,1.30276 71.2501,-0.453544 144.618,-0.921261 186.847,38.1083l-21.6248 23.5004 21.7193 -23.5004c0.422835,0.390945 0.831497,0.791339 1.22835,1.19764l176.3 176.3 0.00236221 -0.00236221c12.4961,12.4961 12.4961,32.7591 0,45.2552 -6.24804,6.24804 -14.4378,9.37205 -22.6276,9.37205l0 0.0011811 -415.564 0c-17.6728,0 -32.0008,-14.328 -32.0008,-32.0008l0 -207.771c0,-17.6728 14.328,-32.0008 32.0008,-32.0008 1.32284,0 2.62677,0.0826772 3.90709,0.238583zm70.063 65.054c-14.2347,0.090945 -28.3807,0.180709 -41.9693,-0.0177165l0 142.497 306.312 0 -121.996 -121.996 0.00708662 -0.00708662c-24.5788,-21.2244 -84.3154,-20.8453 -142.354,-20.4756z"/>
  <path class="fil0" d="M1426.21 1304.42c38.765,0 73.865,15.7169 99.2729,41.1248 25.4079,25.4067 41.1248,60.5067 41.1248,99.2729 0,38.7662 -15.7169,73.8662 -41.1248,99.2729 -25.4067,25.4079 -60.5067,41.1248 -99.2729,41.1248 -38.7638,0 -73.865,-15.7158 -99.2741,-41.1237 -25.4079,-25.4079 -41.1237,-60.5079 -41.1237,-99.2741 0,-38.7662 15.7169,-73.8662 41.1248,-99.2729 25.4067,-25.4079 60.5067,-41.1248 99.2729,-41.1248zm54.0225 86.3753c-13.8225,-13.8225 -32.9233,-22.3736 -54.0225,-22.3736 -21.0992,0 -40.2012,8.55119 -54.0225,22.3736 -13.8225,13.8213 -22.3736,32.9233 -22.3736,54.0225 0,21.1004 8.55001,40.2012 22.3725,54.0237 13.8225,13.8213 32.9244,22.3725 54.0237,22.3725 21.0992,0 40.2012,-8.55119 54.0225,-22.3736 13.8225,-13.8213 22.3736,-32.9233 22.3736,-54.0225 0,-21.0992 -8.55119,-40.2012 -22.3736,-54.0225z"/>
  <path class="fil0" d="M1426.21 1396.64c13.3028,0 25.3488,5.39528 34.0677,14.113 8.7189,8.72009 14.113,20.7673 14.113,34.0677 0,13.3028 -5.39528,25.3488 -14.113,34.0677 -8.7189,8.71772 -20.765,14.113 -34.0677,14.113 -13.3028,0 -25.3488,-5.3941 -34.0677,-14.113 -8.71772,-8.71772 -14.113,-20.765 -14.113,-34.0677 0,-13.3016 5.3941,-25.3477 14.113,-34.0677 8.72009,-8.7189 20.7662,-14.113 34.0677,-14.113zm11.4425 36.7382c-2.92559,-2.92559 -6.97323,-4.73741 -11.4425,-4.73741 -4.47048,0 -8.51694,1.81181 -11.4425,4.73741 -2.92559,2.92559 -4.73741,6.97205 -4.73741,11.4425 0,4.46929 1.81181,8.51694 4.73741,11.4425 2.92677,2.92677 6.97323,4.73741 11.4425,4.73741 4.46929,0 8.51694,-1.81181 11.4425,-4.73741 2.92559,-2.92559 4.73741,-6.97323 4.73741,-11.4425 0,-4.46929 -1.81181,-8.51694 -4.73741,-11.4425z"/>
 </g>
 <rect class="fil1" width="2048" height="2048"/>
</svg>
