<?xml version="1.0" encoding="UTF-8"?>
<!DOCTYPE svg PUBLIC "-//W3C//DTD SVG 1.1//EN" "http://www.w3.org/Graphics/SVG/1.1/DTD/svg11.dtd">
<!-- Creator: CorelDRAW -->
<svg xmlns="http://www.w3.org/2000/svg" xml:space="preserve" width="2048px" height="2048px" style="shape-rendering:geometricPrecision; text-rendering:geometricPrecision; image-rendering:optimizeQuality; fill-rule:evenodd; clip-rule:evenodd"
viewBox="0 0 2048 2048"
 xmlns:xlink="http://www.w3.org/1999/xlink">
 <defs>
  <style type="text/css">
   <![CDATA[
    .fil1 {fill:none}
    .fil0 {fill:#212121;fill-rule:nonzero}
   ]]>
  </style>
 </defs>
 <g id="Layer_x0020_1">
  <metadata id="CorelCorpID_0Corel-Layer"/>
  <path class="fil0" d="M1382.02 614.979c-119.534,19.5106 -239.042,29.2477 -358.513,29.2358 -120.272,-0.0106299 -240.141,-9.89765 -359.602,-29.6209l5.12481 -31.5 -5.21339 31.5733c-16.1516,-2.66575 -27.4654,-16.9961 -26.7579,-32.9516 -5.15079,-136.964 39.4548,-218.065 113.586,-265.413 71.393,-45.5989 168.23,-56.6894 272.882,-56.0705 110.177,0.669686 207.277,12.8504 277.564,58.663 73.6158,47.9811 115.776,129.155 110.045,265.448l-31.8756 -1.24961 31.9725 1.34528c-0.68504,16.2697 -13.402,29.191 -29.211,30.5398zm-358.513 -34.5154c107.758,0.00944883 215.861,-8.21812 324.299,-24.7063 -1.03228,-94.3229 -31.3547,-150.702 -81.4666,-183.363 -57.9,-37.7386 -143.915,-47.8087 -243.064,-48.4111 -93.9981,-0.5563 -179.62,8.5382 -238.382,46.0689 -51.091,32.6315 -83.2312,89.6079 -84.3957,185.726 107.655,16.4362 215.326,24.6768 323.009,24.6851z"/>
  <path class="fil0" d="M700.906 585.667c1.38071,-17.6043 -11.7709,-32.9953 -29.3752,-34.376 -17.6043,-1.38071 -32.9953,11.7709 -34.376,29.3752 -0.333071,4.09607 -0.490158,8.89253 -0.473622,14.3693 0.194882,63.6934 34.9831,109.584 92.5595,141.01 51.5221,28.1232 121.81,44.0433 200.889,50.4815 29.3067,2.38583 60.7997,3.45473 93.7831,3.35433 33.5575,-0.105118 65.0658,-1.27677 94.0016,-3.63189 82.1646,-6.68977 152.724,-22.8744 203.71,-51.1465 57.0272,-31.6229 90.1938,-77.4532 89.9977,-140.604 -0.0165354,-5.43426 -0.179528,-10.05 -0.486615,-13.8319 -1.38071,-17.6043 -16.7717,-30.7559 -34.376,-29.3752 -17.6043,1.38071 -30.7559,16.7717 -29.3752,34.376 0.317717,3.9189 0.480709,6.86221 0.486615,8.83111 0.114567,36.9792 -20.9823,64.7445 -57.2457,84.854 -42.3048,23.4579 -104.074,37.1492 -177.711,43.1457 -29.0729,2.36575 -58.8414,3.5374 -89.0009,3.63189 -29.8465,0.0897638 -59.5973,-0.979135 -88.7824,-3.35433 -70.8355,-5.76615 -132.435,-19.2851 -175.389,-42.7311 -36.9024,-20.1414 -59.1957,-47.9599 -59.3091,-85.0087 -0.00590552,-2.27126 0.151181,-5.3941 0.473622,-9.36851z"/>
  <path class="fil0" d="M1056.15 267.375c0,-17.6728 -14.328,-32.0008 -32.0008,-32.0008 -17.6728,0 -32.0008,14.328 -32.0008,32.0008l0 24.5315c0,17.6728 14.328,32.0008 32.0008,32.0008 17.6728,0 32.0008,-14.328 32.0008,-32.0008l0 -24.5315z"/>
  <path class="fil0" d="M1402.97 627.916c-7.04056,-16.1539 -25.8461,-23.5406 -42,-16.5 -16.1539,7.04056 -23.5406,25.8461 -16.5,42 5.61851,12.841 9.81379,26.4484 12.3945,40.8071 2.53347,14.0906 3.56811,29.1189 2.94095,45.0922 -4.24252,107.875 -21.7288,231.835 -73.0016,327.593 -48.7264,91.0028 -129.709,156.819 -262.598,156.819 -7.00867,0 -12.2079,-0.068504 -15.6319,-0.201969 -120.803,-4.72678 -200.25,-65.6457 -249.488,-149.562 -51.1784,-87.2221 -70.9725,-199.588 -70.9725,-301.731 0,-11.9941 0.167717,-22.1126 0.49252,-30.4181 0.579922,-14.8181 2.51693,-28.8118 5.67874,-41.987 3.19725,-13.3228 7.78111,-26.1496 13.598,-38.452 7.52481,-15.9473 0.696851,-34.976 -15.2504,-42.5008 -15.9473,-7.52481 -34.976,-0.696851 -42.5008,15.2504 -7.48111,15.8197 -13.4917,32.8016 -17.8477,50.9528 -4.15748,17.3244 -6.69213,35.4118 -7.42914,54.2374 -0.488977,12.528 -0.742914,23.55 -0.742914,32.9173 0,111.696 22.304,235.695 79.9749,333.982 59.6103,101.593 155.775,175.341 301.988,181.062 7.67127,0.3 13.7268,0.452363 18.1311,0.452363 161.192,0 259.558,-80.0859 318.849,-190.82 56.7473,-105.982 75.9603,-239.608 80.5016,-355.094 0.805512,-20.5193 -0.581103,-40.1398 -3.94252,-58.8426 -3.51969,-19.578 -9.15001,-37.9276 -16.6441,-55.0559z"/>
  <path class="fil0" d="M848.67 789.04c13.2555,0 25.2933,5.41182 34.0406,14.1555l-14.5843 14.6658 0.00826772 0.0318898 14.6988 -14.7047c0.967324,0.966142 1.85788,1.97835 2.6752,3.03071 7.15985,8.42127 11.4827,19.2945 11.4827,31.1421 0,13.2555 -5.41182,25.2933 -14.1555,34.0406l-14.6658 -14.5843 -0.0318898 0.00826772 14.7047 14.6988c-0.966142,0.967324 -1.97835,1.85788 -3.03071,2.6752 -8.42127,7.15985 -19.2957,11.4827 -31.1421,11.4827 -13.2567,0 -25.2933,-5.41182 -34.0406,-14.1555l14.5843 -14.6658 -0.00826772 -0.0318898 -14.6988 14.7047c-0.967324,-0.966142 -1.85788,-1.97835 -2.6752,-3.03071 -7.15985,-8.42127 -11.4827,-19.2957 -11.4827,-31.1421 0,-13.2567 5.41182,-25.2933 14.1555,-34.0406l14.6658 14.5843 0.0318898 -0.00826772 -14.7047 -14.6988c0.966142,-0.967324 1.97835,-1.85788 3.03071,-2.6752 8.42127,-7.15985 19.2945,-11.4827 31.1421,-11.4827z"/>
  <path class="fil0" d="M1183.56 789.04c13.2567,0 25.2933,5.41182 34.0406,14.1555l-14.5843 14.6658 0.00826772 0.0318898 14.6988 -14.7047c0.967324,0.966142 1.85788,1.97835 2.6752,3.03071 7.15985,8.42127 11.4827,19.2945 11.4827,31.1421 0,13.3394 -5.40827,25.4185 -14.1555,34.1658 -8.74371,8.74371 -20.8264,14.1555 -34.1658,14.1555 -13.2555,0 -25.2933,-5.41182 -34.0406,-14.1555l22.5 -22.6252 -22.6229 22.6323c-0.967324,-0.966142 -1.85788,-1.97835 -2.6752,-3.03071 -7.15985,-8.42127 -11.4827,-19.2957 -11.4827,-31.1421 0,-13.2567 5.41182,-25.2933 14.1555,-34.0406l14.6658 14.5843 0.0318898 -0.00826772 -14.7047 -14.6988c0.966142,-0.967324 1.97835,-1.85788 3.03071,-2.6752 8.42245,-7.15985 19.2992,-11.4827 31.1421,-11.4827z"/>
  <path class="fil0" d="M897.552 1017.05c-17.2583,-3.72756 -34.2721,7.24134 -37.9996,24.4996 -3.72756,17.2583 7.24134,34.2721 24.4996,37.9996 40.9004,8.94804 84.7477,13.6228 131.734,13.7209 46.552,0.0980316 95.4757,-4.29449 146.913,-13.4705 17.3965,-3.03662 29.0362,-19.604 25.9996,-37.0004 -3.03662,-17.3965 -19.604,-29.0362 -37.0004,-25.9996 -48.5469,8.65985 -93.7867,12.8091 -135.912,12.7193 -41.6918,-0.0874016 -81.0556,-4.33465 -118.234,-12.4689z"/>
  <path class="fil0" d="M672.115 1204.62l12.2126 0c11.2807,0 21.1973,5.83937 26.8961,14.6575 24.6036,32.4709 66.7134,60.4902 120.279,80.6764 54.7642,20.6362 120.934,32.6658 192.497,32.6658 71.563,0 137.733,-12.0295 192.497,-32.6658 54.4063,-20.5028 96.9934,-49.0867 121.425,-82.2083l25.7504 18.8752 -25.7528 -18.9957c6.2693,-8.5004 15.9484,-12.9992 25.7587,-13.0051l12.2067 0c83.6327,0 159.643,34.1918 214.727,89.2749 55.0831,55.0843 89.2749,131.093 89.2749,214.726l0 272.001c0,17.6728 -14.328,32.0008 -32.0008,32.0008l-1247.77 0c-17.6728,0 -32.0008,-14.328 -32.0008,-32.0008l0 -272.001c0,-83.6327 34.1918,-159.641 89.2749,-214.726 55.0843,-55.0831 131.094,-89.2749 214.727,-89.2749zm136.888 155.084c-59.0422,-22.2484 -107.542,-53.6705 -139.898,-91.0619 -64.78,0.807875 -123.614,27.6532 -166.466,70.5036 -43.513,43.5142 -70.5237,103.508 -70.5237,169.475l0 240 1183.77 0 0 -240c0,-65.967 -27.0107,-125.961 -70.5237,-169.475 -42.8516,-42.8504 -101.686,-69.6957 -166.466,-70.5036 -32.3563,37.3914 -80.856,68.8123 -139.898,91.0619 -61.8922,23.3232 -135.848,36.9177 -214.997,36.9177 -79.1493,0 -153.105,-13.5945 -214.997,-36.9177z"/>
  <path class="fil0" d="M654.571 1524.62l739.475 0c15.6083,0 28.6051,11.1756 31.4292,25.9618l61.1611 221.54 -30.75 8.5004 30.8469 -8.51575c4.70197,17.0362 -5.29489,34.6607 -22.3311,39.3626 -3.05079,0.842127 -6.1193,1.21063 -9.13111,1.15394l-863.157 0c-17.6728,0 -32.0008,-14.328 -32.0008,-32.0008 0,-3.86575 0.68504,-7.57205 1.94173,-11.0032l61.1469 -221.488 -0.0944883 -0.0259843c3.97441,-14.4012 17.1827,-23.7709 31.4646,-23.4851zm715.212 64.0016l-691.568 0 -44.1709 159.999 779.91 0 -44.1709 -159.999z"/>
  <path class="fil0" d="M1365.66 1284.75c0.275197,-17.6043 -13.7717,-32.1 -31.376,-32.3752 -17.6043,-0.275197 -32.1,13.7717 -32.3752,31.376l-4.09134 248.751c-0.275197,17.6043 13.7717,32.1 31.376,32.3752 17.6043,0.275197 32.1,-13.7717 32.3752,-31.376l4.09134 -248.751z"/>
  <path class="fil0" d="M746.091 1283.75c-0.275197,-17.6043 -14.7709,-31.6512 -32.3752,-31.376 -17.6043,0.275197 -31.6512,14.7709 -31.376,32.3752l4.09134 248.751c0.275197,17.6043 14.7709,31.6512 32.3752,31.376 17.6043,-0.275197 31.6512,-14.7709 31.376,-32.3752l-4.09134 -248.751z"/>
 </g>
 <rect class="fil1" width="2048" height="2048"/>
</svg>
